<svg width="147" height="28" viewBox="0 0 147 28" fill="none" xmlns="http://www.w3.org/2000/svg">
<path d="M16.7256 0.433838H0V27.5063H2.06183V14.797H14.5971V12.7829H2.06183V2.44649H16.7256V0.433838Z" fill="white"/>
<path d="M28.5121 8.23218C25.9056 8.23218 23.3538 10.0062 22.4376 12.4091L22.3976 8.47982V8.42128H20.6333V27.5062H22.6196V18.3435C22.6196 15.2907 23.3849 10.1698 28.5121 10.1698C29.2492 10.1698 29.8279 10.2298 30.3297 10.3574L30.4022 10.3754V8.35375L30.3549 8.34474C29.751 8.23218 29.1204 8.23218 28.5121 8.23218Z" fill="white"/>
<path d="M41.1536 7.92749C38.5426 7.92749 36.3269 9.07715 34.7476 11.2519C33.4894 12.9869 32.9048 15.1436 32.9048 18.0403C32.9048 20.9099 33.7381 23.4163 35.313 25.2864C36.8701 27.0859 38.886 28 41.3031 28C43.3708 28 45.2847 27.2135 46.6938 25.7847C47.8483 24.6545 48.5587 23.3038 48.8044 21.7684L48.8163 21.7009H46.7544L46.7456 21.7474C46.5487 22.7515 46.1017 23.5979 45.3409 24.4114C44.327 25.4755 42.8942 26.0624 41.3031 26.0624C39.4307 26.0624 37.9239 25.393 36.8212 24.0737C35.6416 22.6554 34.94 20.6202 34.8897 18.4815H49.1789V18.423C49.1789 18.1964 49.1893 17.9937 49.1982 17.7971C49.207 17.6005 49.2174 17.3979 49.2174 17.1698C49.2174 14.7249 48.464 12.4451 47.0949 10.7506C45.6059 8.90155 43.5514 7.92749 41.1536 7.92749ZM34.9267 16.6145C34.9518 12.6792 37.5628 9.82907 41.1536 9.82907C45.0034 9.82907 47.0993 13.233 47.194 16.6145H34.9267Z" fill="white"/>
<path d="M74.2186 7.92749C71.4537 7.92749 69.3223 9.3428 68.2048 11.9168C67.5979 10.0617 66.0764 7.92749 62.2857 7.92749C59.8331 7.92749 57.7387 9.26475 56.6405 11.516L56.4333 8.4753L56.4288 8.42127H54.6704V27.5062H56.6568V17.9622C56.6568 14.8089 57.4057 12.5006 58.8829 11.1018C59.7577 10.2568 60.8648 9.82757 62.1732 9.82757C65.1972 9.82757 66.6063 11.4845 66.6063 15.0416V27.5047H68.6296V16.7105C68.6296 14.4187 69.3874 12.4796 70.8187 11.1018C71.7586 10.2328 72.8036 9.82757 74.1091 9.82757C77.1064 9.82757 78.5036 11.4845 78.5036 15.0416V27.5047H80.49V14.926C80.4885 10.4129 78.2623 7.92749 74.2186 7.92749Z" fill="white"/>
<path d="M90.13 2.71362L88.1437 3.1984V8.41989H84.4019V10.2824H88.1437V22.1737C88.1437 25.8358 89.8325 27.7704 93.0281 27.7704C94.0405 27.7704 95.0011 27.5618 96.021 27.3412L96.1912 27.3037V25.5147L96.1231 25.5282C95.2024 25.7008 94.2167 25.8689 93.1776 25.8689C91.0418 25.8689 90.1315 24.7402 90.1315 22.0972V10.2824H101.246V27.5048H103.345V8.42138H90.1315V2.71362H90.13Z" fill="white"/>
<path d="M118.889 7.92749C116.242 7.92749 113.697 9.46887 112.609 11.7006L112.397 8.42127H110.637V27.5062H112.624V17.9622C112.624 16.3953 112.862 14.1575 113.994 12.4C115.061 10.7446 116.67 9.90412 118.776 9.90412C121.984 9.90412 123.544 11.5851 123.544 15.0431V27.5062H125.53V14.9275C125.532 10.4789 123.11 7.92749 118.889 7.92749Z" fill="white"/>
<path d="M102.275 0.354248C101.444 0.354248 100.77 1.03864 100.77 1.88062C100.77 2.7226 101.444 3.40699 102.275 3.40699C103.105 3.40699 103.78 2.7226 103.78 1.88062C103.78 1.03864 103.105 0.354248 102.275 0.354248Z" fill="white"/>
<path d="M145.013 0V11.42C143.924 9.35184 141.42 7.92753 138.824 7.92753C136.763 7.92753 135.037 8.59691 133.696 9.91617C131.83 11.7022 130.76 14.6484 130.76 18.0013C130.76 21.5223 131.857 24.434 133.847 26.2005C135.184 27.3922 136.87 27.997 138.862 27.997C141.445 27.997 143.997 26.4721 145.028 24.3394L145.241 27.5047H147V0H145.013ZM142.675 24.521C141.652 25.5176 140.381 26.0234 138.898 26.0234C137.423 26.0234 136.224 25.5941 135.233 24.7116C133.653 23.2828 132.783 20.8874 132.783 17.9638C132.783 15.2952 133.522 13.0184 134.861 11.5566C135.917 10.446 137.213 9.90566 138.824 9.90566C140.407 9.90566 141.714 10.3979 142.712 11.369C144.307 12.8819 145.052 14.9786 145.052 17.9638C145.052 20.7494 144.253 22.9571 142.675 24.521Z" fill="white"/>
</svg>
