<svg width="292" height="49" viewBox="0 0 292 49" fill="none" xmlns="http://www.w3.org/2000/svg">
<rect y="24.0415" width="34" height="34" transform="rotate(-45 0 24.0415)" fill="#00FAFF"/>
<path d="M21.5547 17.035L30.7519 23.1665C31.3457 23.5623 31.3457 24.4348 30.7519 24.8306L21.5547 30.9621C20.8901 31.4051 20 30.9287 20 30.13V17.8671C20 17.0684 20.8901 16.592 21.5547 17.035Z" fill="black"/>
<path d="M59.568 28.9985H60.592V24.3265H63.344C65.584 24.3265 67.216 23.0465 67.216 20.6625C67.216 18.2785 65.456 16.9985 63.296 16.9985H59.568V28.9985ZM63.136 17.9265C64.976 17.9265 66.176 18.8065 66.176 20.6625C66.176 22.5025 65.12 23.3985 63.376 23.3985H60.592V17.9265H63.136ZM69.0978 28.9985H70.1058V16.6785H69.0978V28.9985ZM75.1454 28.3905C73.8494 28.3905 73.2574 27.6705 73.2574 26.7105C73.2574 25.4625 74.2174 24.9345 75.8334 24.9345H77.8814V25.8625C77.8814 27.5585 76.3134 28.3905 75.1454 28.3905ZM80.0254 28.1665C79.8814 28.1825 79.7694 28.1985 79.6414 28.1985C79.1454 28.1985 78.8734 27.9585 78.8734 27.4945V22.7745C78.8734 21.1585 77.7214 20.1665 75.7374 20.1665C74.2014 20.1665 72.8254 21.0145 72.6334 22.7585H73.5134C73.6734 21.7345 74.4734 21.0465 75.7054 21.0465C77.0334 21.0465 77.8814 21.6385 77.8814 22.9665V24.1185H75.7854C73.8974 24.1185 72.2814 24.7425 72.2814 26.7585C72.2814 28.0385 73.0654 29.2385 75.0494 29.2385C76.2974 29.2385 77.4174 28.4545 77.8814 27.4465V27.6705C77.8814 28.5985 78.4894 29.0625 79.4174 29.0625C79.7054 29.0625 79.8494 29.0305 80.0254 28.9825V28.1665ZM83.5609 32.1985L87.9449 20.4065H86.9369L84.3129 27.6865L81.4969 20.4065H80.4889L83.8489 28.8545L82.5849 32.1985H83.5609ZM91.8724 25.9265C91.9364 27.7825 93.1364 29.2385 95.1204 29.2385C96.9444 29.2385 98.2564 28.0545 98.2564 25.8785V16.9985H97.2324V25.8945C97.2324 27.6545 96.2884 28.2785 95.1364 28.2785C93.7764 28.2785 92.9284 27.5425 92.8324 25.9265H91.8724ZM100.472 29.2385H101.432L102.072 28.4385C102.776 28.9665 103.64 29.2545 104.552 29.2545C106.728 29.2545 108.712 27.5585 108.712 24.7265C108.712 23.3505 108.264 22.2465 107.544 21.4785L108.616 20.1185H107.656L106.984 20.9665C106.28 20.4545 105.432 20.1825 104.552 20.1825C102.36 20.1825 100.392 21.8625 100.392 24.7265C100.392 26.0705 100.824 27.1585 101.512 27.9265L100.472 29.2385ZM101.384 24.7265C101.384 22.3905 102.792 21.0945 104.552 21.0945C105.24 21.0945 105.896 21.3025 106.408 21.7025L102.104 27.1585C101.656 26.5665 101.384 25.7505 101.384 24.7265ZM104.552 28.3265C103.848 28.3265 103.176 28.1185 102.648 27.7025L106.952 22.2305C107.432 22.8385 107.72 23.6705 107.72 24.7265C107.72 27.0785 106.296 28.3265 104.552 28.3265ZM110.926 28.9985H111.934V26.0065L113.278 24.6945L116.622 28.9985H117.822L113.95 24.0385L117.662 20.4065H116.446L111.934 24.8225V16.6785H110.926V28.9985ZM122.241 29.2385C123.537 29.2385 124.673 28.4705 125.217 27.3025V28.9985H126.209V20.4065H125.217V25.7025C125.217 27.4945 123.793 28.3425 122.529 28.3425C121.233 28.3425 120.385 27.8305 120.385 26.0065V20.4065H119.377V26.0385C119.377 28.4225 120.689 29.2385 122.241 29.2385ZM129.223 28.9985H130.231V16.6785H129.223V28.9985ZM137.146 28.9985H141.034C144.41 28.9985 146.49 26.7265 146.49 22.9985C146.49 19.3825 144.346 16.9985 141.034 16.9985H137.146V28.9985ZM140.81 17.9265C143.658 17.9265 145.45 19.5905 145.45 22.9985C145.45 26.2945 143.77 28.0705 140.906 28.0705H138.17V17.9265H140.81ZM152.115 29.2385C153.859 29.2385 155.443 27.9905 155.699 26.1505H154.803C154.563 27.3505 153.427 28.3265 152.115 28.3265C150.419 28.3265 148.995 27.3185 148.947 24.8545H155.731V24.5505C155.731 21.7185 153.987 20.1665 151.987 20.1665C149.859 20.1665 147.939 21.8465 147.939 24.6305C147.939 27.6065 149.651 29.2385 152.115 29.2385ZM151.987 21.0785C153.459 21.0785 154.611 22.0065 154.755 24.0545H149.011C149.171 22.0225 150.611 21.0785 151.987 21.0785ZM160.311 29.2385C162.119 29.2385 163.415 28.1665 163.415 26.7265C163.415 25.5105 162.759 24.8065 161.479 24.4705L159.767 24.0225C158.791 23.7505 158.423 23.2545 158.423 22.5185C158.423 21.6065 159.175 21.0625 160.247 21.0625C161.287 21.0625 162.231 21.6385 162.359 22.9345H163.239C163.127 20.9505 161.607 20.1665 160.295 20.1665C158.871 20.1665 157.447 20.9345 157.447 22.5665C157.447 23.7025 158.087 24.5185 159.239 24.8385L161.031 25.3185C162.183 25.6385 162.439 26.1185 162.439 26.7745C162.439 27.7665 161.591 28.3425 160.407 28.3425C159.303 28.3425 158.247 27.9905 158.007 26.5665H157.079C157.287 28.4545 158.775 29.2385 160.311 29.2385ZM166.077 18.3265C166.509 18.3265 166.813 18.0705 166.813 17.6225C166.813 17.1905 166.509 16.9185 166.077 16.9185C165.661 16.9185 165.373 17.1905 165.373 17.6225C165.373 18.0705 165.661 18.3265 166.077 18.3265ZM165.629 28.9985H166.637V20.4065H165.629V28.9985ZM172.205 25.0465C170.893 25.0465 170.061 24.2625 170.061 23.0305C170.061 21.7825 170.877 20.9985 172.173 20.9985C173.485 20.9985 174.317 21.7825 174.317 23.0305C174.317 24.2625 173.469 25.0465 172.205 25.0465ZM169.661 29.6545C169.661 28.7745 170.285 28.1665 171.869 28.1665H173.293C174.477 28.1665 175.197 28.6465 175.197 29.4145C175.197 30.5505 174.029 31.1585 172.397 31.1585C170.589 31.1585 169.661 30.5665 169.661 29.6545ZM172.237 25.8785C174.109 25.8785 175.261 24.6785 175.261 23.0305C175.261 22.2305 174.845 21.5265 174.429 21.1425L175.933 20.1985L175.517 19.5265L173.757 20.5985C173.357 20.3425 172.845 20.1665 172.173 20.1665C170.541 20.1665 169.117 21.2225 169.117 23.0305C169.117 23.8465 169.437 24.5505 169.981 25.0625C169.469 25.3185 169.021 25.7825 169.021 26.4385C169.021 26.9985 169.389 27.5905 170.173 27.8625C169.325 28.1025 168.637 28.7265 168.637 29.6865C168.637 31.2865 170.269 31.9905 172.365 31.9905C174.605 31.9905 176.141 30.9985 176.141 29.3025C176.141 27.9265 174.845 27.3025 173.453 27.3025H171.197C170.285 27.3025 169.869 26.8865 169.869 26.3745C169.869 25.9425 170.077 25.6385 170.461 25.4305C170.957 25.7185 171.549 25.8785 172.237 25.8785ZM184.083 28.9985H185.075V23.2545C185.075 20.9025 183.651 20.1665 182.179 20.1665C180.803 20.1665 179.587 20.8865 179.059 22.0225V20.4065H178.051V28.9985H179.059V23.5585C179.059 21.8945 180.499 21.0465 181.875 21.0465C183.091 21.0465 184.083 21.4785 184.083 23.2385V28.9985ZM190.436 29.2385C192.244 29.2385 193.54 28.1665 193.54 26.7265C193.54 25.5105 192.884 24.8065 191.604 24.4705L189.892 24.0225C188.916 23.7505 188.548 23.2545 188.548 22.5185C188.548 21.6065 189.3 21.0625 190.372 21.0625C191.412 21.0625 192.356 21.6385 192.484 22.9345H193.364C193.252 20.9505 191.732 20.1665 190.42 20.1665C188.996 20.1665 187.572 20.9345 187.572 22.5665C187.572 23.7025 188.212 24.5185 189.364 24.8385L191.156 25.3185C192.308 25.6385 192.564 26.1185 192.564 26.7745C192.564 27.7665 191.716 28.3425 190.532 28.3425C189.428 28.3425 188.372 27.9905 188.132 26.5665H187.204C187.412 28.4545 188.9 29.2385 190.436 29.2385ZM197.514 32.1985L201.898 20.4065H200.89L198.266 27.6865L195.45 20.4065H194.442L197.802 28.8545L196.538 32.1985H197.514ZM205.874 29.2385C207.682 29.2385 208.978 28.1665 208.978 26.7265C208.978 25.5105 208.322 24.8065 207.042 24.4705L205.33 24.0225C204.354 23.7505 203.986 23.2545 203.986 22.5185C203.986 21.6065 204.738 21.0625 205.81 21.0625C206.85 21.0625 207.794 21.6385 207.922 22.9345H208.802C208.69 20.9505 207.17 20.1665 205.858 20.1665C204.434 20.1665 203.01 20.9345 203.01 22.5665C203.01 23.7025 203.65 24.5185 204.802 24.8385L206.594 25.3185C207.746 25.6385 208.002 26.1185 208.002 26.7745C208.002 27.7665 207.154 28.3425 205.97 28.3425C204.866 28.3425 203.81 27.9905 203.57 26.5665H202.642C202.85 28.4545 204.338 29.2385 205.874 29.2385ZM214.44 28.9825V28.1825C214.248 28.2465 213.896 28.2945 213.624 28.2945C212.904 28.2945 212.312 28.0545 212.312 27.3345V21.2705H214.2V20.4065H212.312V18.2465H211.352V20.4065H209.88V21.2705H211.32V27.4785C211.32 28.6625 212.232 29.1585 213.4 29.1585C213.784 29.1585 214.2 29.0945 214.44 28.9825ZM219.677 29.2385C221.421 29.2385 223.005 27.9905 223.261 26.1505H222.365C222.125 27.3505 220.989 28.3265 219.677 28.3265C217.981 28.3265 216.557 27.3185 216.509 24.8545H223.293V24.5505C223.293 21.7185 221.549 20.1665 219.549 20.1665C217.421 20.1665 215.501 21.8465 215.501 24.6305C215.501 27.6065 217.213 29.2385 219.677 29.2385ZM219.549 21.0785C221.021 21.0785 222.173 22.0065 222.317 24.0545H216.573C216.733 22.0225 218.173 21.0785 219.549 21.0785ZM236.21 28.9985H237.202V23.3025C237.202 20.9345 235.986 20.1665 234.658 20.1665C233.345 20.1665 232.29 20.9345 231.698 22.1345C231.362 20.6785 230.354 20.1665 229.266 20.1665C228.018 20.1665 227.026 20.8545 226.45 22.0065V20.4065H225.442V28.9985H226.45V23.5425C226.45 21.8945 227.762 21.0465 228.946 21.0465C230.114 21.0465 230.834 21.5905 230.834 23.2385V28.9985H231.826V23.6065C231.826 21.8785 233.106 21.0465 234.338 21.0465C235.474 21.0465 236.21 21.5905 236.21 23.2225V28.9985Z" fill="white"/>
</svg>
