<svg width="24" height="24" viewBox="0 0 24 24" fill="none" xmlns="http://www.w3.org/2000/svg">
<path d="M10.92 13.93H11.63V17.73H10.92V17.31C10.79 17.46 10.65 17.58 10.52 17.66C10.14 17.88 9.62 17.87 9.62 17.1V13.93H10.32V16.84C10.32 16.99 10.36 17.1 10.51 17.1C10.65 17.1 10.84 16.92 10.92 16.82V13.93ZM11.56 9.75C11.76 9.75 11.87 9.59 11.87 9.37V7.52C11.87 7.3 11.77 7.14 11.55 7.14C11.34 7.14 11.24 7.3 11.24 7.52V9.37C11.24 9.58 11.35 9.75 11.56 9.75ZM9.62 12.58H7.18V13.33H8V17.73H8.8V13.33H9.62V12.58ZM14.34 14.84V16.95C14.34 17.42 14.16 17.78 13.69 17.78C13.43 17.78 13.22 17.69 13.02 17.44V17.73H12.31V12.58H13.02V14.24C13.18 14.05 13.4 13.89 13.65 13.89C14.17 13.88 14.34 14.32 14.34 14.84ZM13.61 14.88C13.61 14.75 13.59 14.65 13.54 14.59C13.45 14.48 13.3 14.47 13.17 14.53L13.02 14.65V17.02L13.19 17.15C13.3 17.21 13.47 17.21 13.55 17.11C13.59 17.06 13.61 16.97 13.61 16.85V14.88ZM24 12C24 18.63 18.63 24 12 24C5.37 24 0 18.63 0 12C0 5.37 5.37 0 12 0C18.63 0 24 5.37 24 12ZM13.25 9.75C13.25 10.14 13.37 10.46 13.77 10.46C13.99 10.46 14.3 10.34 14.63 9.96V10.4H15.37V6.42H14.63V9.44C14.54 9.55 14.34 9.74 14.19 9.74C14.03 9.74 13.99 9.63 13.99 9.47V6.42H13.25V9.75ZM10.47 7.46V9.41C10.47 10.11 10.84 10.48 11.56 10.48C12.16 10.48 12.63 10.08 12.63 9.41V7.46C12.63 6.84 12.16 6.39 11.56 6.39C10.91 6.38 10.47 6.82 10.47 7.46ZM7.71 5L8.7 8.21V10.4H9.54V8.21L10.51 5H9.66L9.13 7.16L8.56 5H7.71ZM17.83 15.21C17.82 12.6 17.63 11.61 15.98 11.5C14.46 11.4 9.53 11.4 8.01 11.5C6.37 11.61 6.17 12.6 6.16 15.21C6.17 17.82 6.36 18.81 8.01 18.92C9.53 19.02 14.46 19.02 15.98 18.92C17.63 18.81 17.82 17.82 17.83 15.21ZM16.95 14.95V15.92H15.6V16.64C15.6 16.92 15.62 17.17 15.91 17.17C16.21 17.17 16.22 16.97 16.22 16.64V16.38H16.95V16.66C16.95 17.39 16.64 17.83 15.89 17.83C15.21 17.83 14.87 17.34 14.87 16.66V14.96C14.87 14.3 15.31 13.84 15.94 13.84C16.62 13.84 16.95 14.27 16.95 14.95ZM16.22 14.95C16.22 14.69 16.17 14.51 15.91 14.51C15.65 14.51 15.6 14.69 15.6 14.95V15.34H16.22V14.95Z" fill="white"/>
</svg>
